<mxfile host="app.diagrams.net" modified="2023-12-06T23:51:09.250Z" agent="Mozilla/5.0 (X11; Linux x86_64) AppleWebKit/537.36 (KHTML, like Gecko) Chrome/115.0.0.0 Safari/537.36" etag="tAFjycN9YMvA0OA6XRkf" version="21.6.8" type="device">
  <diagram name="PÃ¡gina-1" id="6VGkceUXT-yBnEPu4vxr">
    <mxGraphModel dx="880" dy="533" grid="1" gridSize="10" guides="1" tooltips="1" connect="1" arrows="1" fold="1" page="1" pageScale="1" pageWidth="827" pageHeight="1169" math="0" shadow="0">
      <root>
        <mxCell id="0" />
        <mxCell id="1" parent="0" />
        <mxCell id="vXYaouOo75Y_UdlulJ1g-3" value="" style="edgeStyle=orthogonalEdgeStyle;rounded=0;orthogonalLoop=1;jettySize=auto;html=1;" edge="1" parent="1" source="vXYaouOo75Y_UdlulJ1g-1" target="vXYaouOo75Y_UdlulJ1g-2">
          <mxGeometry relative="1" as="geometry" />
        </mxCell>
        <mxCell id="vXYaouOo75Y_UdlulJ1g-8" value="" style="edgeStyle=orthogonalEdgeStyle;rounded=0;orthogonalLoop=1;jettySize=auto;html=1;" edge="1" parent="1" source="vXYaouOo75Y_UdlulJ1g-1" target="vXYaouOo75Y_UdlulJ1g-7">
          <mxGeometry relative="1" as="geometry" />
        </mxCell>
        <mxCell id="vXYaouOo75Y_UdlulJ1g-1" value="Login" style="whiteSpace=wrap;html=1;aspect=fixed;fillColor=#dae8fc;strokeColor=#6c8ebf;" vertex="1" parent="1">
          <mxGeometry x="40" y="40" width="80" height="80" as="geometry" />
        </mxCell>
        <mxCell id="vXYaouOo75Y_UdlulJ1g-6" style="edgeStyle=orthogonalEdgeStyle;rounded=0;orthogonalLoop=1;jettySize=auto;html=1;exitX=0.75;exitY=0;exitDx=0;exitDy=0;entryX=0.75;entryY=1;entryDx=0;entryDy=0;" edge="1" parent="1" source="vXYaouOo75Y_UdlulJ1g-2" target="vXYaouOo75Y_UdlulJ1g-1">
          <mxGeometry relative="1" as="geometry" />
        </mxCell>
        <mxCell id="vXYaouOo75Y_UdlulJ1g-2" value="Verificar no DB" style="whiteSpace=wrap;html=1;aspect=fixed;fillColor=#dae8fc;strokeColor=#6c8ebf;" vertex="1" parent="1">
          <mxGeometry x="40" y="200" width="80" height="80" as="geometry" />
        </mxCell>
        <mxCell id="vXYaouOo75Y_UdlulJ1g-7" value="Agendamento" style="whiteSpace=wrap;html=1;aspect=fixed;fillColor=#dae8fc;strokeColor=#6c8ebf;" vertex="1" parent="1">
          <mxGeometry x="200" y="40" width="80" height="80" as="geometry" />
        </mxCell>
      </root>
    </mxGraphModel>
  </diagram>
</mxfile>
